<svg version="1.1" xmlns="http://www.w3.org/2000/svg" xmlns:xlink="http://www.w3.org/1999/xlink" width="313.33447265625" height="766"><defs/><g><g><rect fill="#C0C0C0" stroke="none" x="39" y="447" width="183.04345703125" height="189" transform="matrix(1 0 0 1 -22 -6)" fill-opacity="0.2"/></g><g><rect fill="#ffffff" stroke="none" x="32" y="440" width="183.04345703125" height="189" transform="matrix(1 0 0 1 -22 -6)"/></g><g><path fill="none" stroke="#000000" paint-order="fill stroke markers" d=" M 10 434 L 193.04345703125 434 L 193.04345703125 623 L 10 623 L 10 434 Z Z" stroke-miterlimit="10" stroke-dasharray=""/></g><g><path fill="none" stroke="#000000" paint-order="fill stroke markers" d=" M 10 472 L 193.04345703125 472" stroke-miterlimit="10" stroke-dasharray=""/></g><g><path fill="none" stroke="#000000" paint-order="fill stroke markers" d=" M 10 525 L 193.04345703125 525" stroke-miterlimit="10" stroke-dasharray=""/></g><g><g><path fill="none" stroke="none"/><text fill="#000000" stroke="none" font-family="Arial" font-size="13px" font-style="normal" font-weight="normal" text-decoration="undefined" x="124.021728515625" y="451.5" text-anchor="middle" dominant-baseline="central" transform="matrix(1 0 0 1 -22 -6)">«Entity»</text></g></g><g><g><path fill="none" stroke="none"/><text fill="#000000" stroke="none" font-family="Arial" font-size="13px" font-style="normal" font-weight="bold" text-decoration="undefined" x="124.021728515625" y="466.5" text-anchor="middle" dominant-baseline="central" transform="matrix(1 0 0 1 -22 -6)">User</text></g></g><g><g><path fill="none" stroke="none"/><text fill="#000000" stroke="none" font-family="Arial" font-size="13px" font-style="normal" font-weight="normal" text-decoration="undefined" x="37" y="489.5" text-anchor="start" dominant-baseline="central" transform="matrix(1 0 0 1 -22 -6)">-id: Long</text></g></g><g><g><path fill="none" stroke="none"/><text fill="#000000" stroke="none" font-family="Arial" font-size="13px" font-style="normal" font-weight="normal" text-decoration="undefined" x="37" y="504.5" text-anchor="start" dominant-baseline="central" transform="matrix(1 0 0 1 -22 -6)">-name: String</text></g></g><g><g><path fill="none" stroke="none"/><text fill="#000000" stroke="none" font-family="Arial" font-size="13px" font-style="normal" font-weight="normal" text-decoration="undefined" x="37" y="519.5" text-anchor="start" dominant-baseline="central" transform="matrix(1 0 0 1 -22 -6)">-email: String</text></g></g><g><g><path fill="none" stroke="none"/><text fill="#000000" stroke="none" font-family="Arial" font-size="13px" font-style="normal" font-weight="normal" text-decoration="undefined" x="37" y="542.5" text-anchor="start" dominant-baseline="central" transform="matrix(1 0 0 1 -22 -6)">+getId(): Long</text></g></g><g><g><path fill="none" stroke="none"/><text fill="#000000" stroke="none" font-family="Arial" font-size="13px" font-style="normal" font-weight="normal" text-decoration="undefined" x="37" y="557.5" text-anchor="start" dominant-baseline="central" transform="matrix(1 0 0 1 -22 -6)">+setId(id: Long): void</text></g></g><g><g><path fill="none" stroke="none"/><text fill="#000000" stroke="none" font-family="Arial" font-size="13px" font-style="normal" font-weight="normal" text-decoration="undefined" x="37" y="572.5" text-anchor="start" dominant-baseline="central" transform="matrix(1 0 0 1 -22 -6)">+getName(): String</text></g></g><g><g><path fill="none" stroke="none"/><text fill="#000000" stroke="none" font-family="Arial" font-size="13px" font-style="normal" font-weight="normal" text-decoration="undefined" x="37" y="587.5" text-anchor="start" dominant-baseline="central" transform="matrix(1 0 0 1 -22 -6)">+setName(name: String): void</text></g></g><g><g><path fill="none" stroke="none"/><text fill="#000000" stroke="none" font-family="Arial" font-size="13px" font-style="normal" font-weight="normal" text-decoration="undefined" x="37" y="602.5" text-anchor="start" dominant-baseline="central" transform="matrix(1 0 0 1 -22 -6)">+getEmail(): String</text></g></g><g><g><path fill="none" stroke="none"/><text fill="#000000" stroke="none" font-family="Arial" font-size="13px" font-style="normal" font-weight="normal" text-decoration="undefined" x="37" y="617.5" text-anchor="start" dominant-baseline="central" transform="matrix(1 0 0 1 -22 -6)">+setEmail(email: String): void</text></g></g><g><rect fill="#C0C0C0" stroke="none" x="159" y="663" width="126.34619140625" height="106" transform="matrix(1 0 0 1 -22 -6)" fill-opacity="0.2"/></g><g><rect fill="#ffffff" stroke="none" x="152" y="656" width="126.34619140625" height="106" transform="matrix(1 0 0 1 -22 -6)"/></g><g><path fill="none" stroke="#000000" paint-order="fill stroke markers" d=" M 130 650 L 256.34619140625 650 L 256.34619140625 756 L 130 756 L 130 650 Z Z" stroke-miterlimit="10" stroke-dasharray=""/></g><g><path fill="none" stroke="#000000" paint-order="fill stroke markers" d=" M 130 688 L 256.34619140625 688" stroke-miterlimit="10" stroke-dasharray=""/></g><g><g><path fill="none" stroke="none"/><text fill="#000000" stroke="none" font-family="Arial" font-size="13px" font-style="normal" font-weight="normal" text-decoration="undefined" x="215.673095703125" y="667.5" text-anchor="middle" dominant-baseline="central" transform="matrix(1 0 0 1 -22 -6)">«enumeration»</text></g></g><g><g><path fill="none" stroke="none"/><text fill="#000000" stroke="none" font-family="Arial" font-size="13px" font-style="normal" font-weight="bold" text-decoration="undefined" x="215.673095703125" y="682.5" text-anchor="middle" dominant-baseline="central" transform="matrix(1 0 0 1 -22 -6)">SkillLevel</text></g></g><g><g><path fill="none" stroke="none"/><text fill="#000000" stroke="none" font-family="Arial" font-size="13px" font-style="normal" font-weight="normal" text-decoration="undefined" x="157" y="705.5" text-anchor="start" dominant-baseline="central" transform="matrix(1 0 0 1 -22 -6)">PRO</text></g></g><g><g><path fill="none" stroke="none"/><text fill="#000000" stroke="none" font-family="Arial" font-size="13px" font-style="normal" font-weight="normal" text-decoration="undefined" x="157" y="720.5" text-anchor="start" dominant-baseline="central" transform="matrix(1 0 0 1 -22 -6)">HOME_CHEF</text></g></g><g><g><path fill="none" stroke="none"/><text fill="#000000" stroke="none" font-family="Arial" font-size="13px" font-style="normal" font-weight="normal" text-decoration="undefined" x="157" y="735.5" text-anchor="start" dominant-baseline="central" transform="matrix(1 0 0 1 -22 -6)">LINE_COOK</text></g></g><g><g><path fill="none" stroke="none"/><text fill="#000000" stroke="none" font-family="Arial" font-size="13px" font-style="normal" font-weight="normal" text-decoration="undefined" x="157" y="750.5" text-anchor="start" dominant-baseline="central" transform="matrix(1 0 0 1 -22 -6)">AMATEUR</text></g></g><g><rect fill="#C0C0C0" stroke="none" x="39" y="23" width="244.45703125" height="309" transform="matrix(1 0 0 1 -22 -6)" fill-opacity="0.2"/></g><g><rect fill="#ffffff" stroke="none" x="32" y="16" width="244.45703125" height="309" transform="matrix(1 0 0 1 -22 -6)"/></g><g><path fill="none" stroke="#000000" paint-order="fill stroke markers" d=" M 10 10 L 254.45703125 10 L 254.45703125 319 L 10 319 L 10 10 Z Z" stroke-miterlimit="10" stroke-dasharray=""/></g><g><path fill="none" stroke="#000000" paint-order="fill stroke markers" d=" M 10 48 L 254.45703125 48" stroke-miterlimit="10" stroke-dasharray=""/></g><g><path fill="none" stroke="#000000" paint-order="fill stroke markers" d=" M 10 116 L 254.45703125 116" stroke-miterlimit="10" stroke-dasharray=""/></g><g><g><path fill="none" stroke="none"/><text fill="#000000" stroke="none" font-family="Arial" font-size="13px" font-style="normal" font-weight="normal" text-decoration="undefined" x="154.728515625" y="27.5" text-anchor="middle" dominant-baseline="central" transform="matrix(1 0 0 1 -22 -6)">«Entity»</text></g></g><g><g><path fill="none" stroke="none"/><text fill="#000000" stroke="none" font-family="Arial" font-size="13px" font-style="normal" font-weight="bold" text-decoration="undefined" x="154.728515625" y="42.5" text-anchor="middle" dominant-baseline="central" transform="matrix(1 0 0 1 -22 -6)">Recipe</text></g></g><g><g><path fill="none" stroke="none"/><text fill="#000000" stroke="none" font-family="Arial" font-size="13px" font-style="normal" font-weight="normal" text-decoration="undefined" x="37" y="65.5" text-anchor="start" dominant-baseline="central" transform="matrix(1 0 0 1 -22 -6)">-id: Long</text></g></g><g><g><path fill="none" stroke="none"/><text fill="#000000" stroke="none" font-family="Arial" font-size="13px" font-style="normal" font-weight="normal" text-decoration="undefined" x="37" y="80.5" text-anchor="start" dominant-baseline="central" transform="matrix(1 0 0 1 -22 -6)">-name: String</text></g></g><g><g><path fill="none" stroke="none"/><text fill="#000000" stroke="none" font-family="Arial" font-size="13px" font-style="normal" font-weight="normal" text-decoration="undefined" x="37" y="95.5" text-anchor="start" dominant-baseline="central" transform="matrix(1 0 0 1 -22 -6)">-description: String</text></g></g><g><g><path fill="none" stroke="none"/><text fill="#000000" stroke="none" font-family="Arial" font-size="13px" font-style="normal" font-weight="normal" text-decoration="undefined" x="37" y="110.5" text-anchor="start" dominant-baseline="central" transform="matrix(1 0 0 1 -22 -6)">-category: String</text></g></g><g><g><path fill="none" stroke="none"/><text fill="#000000" stroke="none" font-family="Arial" font-size="13px" font-style="normal" font-weight="normal" text-decoration="undefined" x="37" y="133.5" text-anchor="start" dominant-baseline="central" transform="matrix(1 0 0 1 -22 -6)">+getId(): Long</text></g></g><g><g><path fill="none" stroke="none"/><text fill="#000000" stroke="none" font-family="Arial" font-size="13px" font-style="normal" font-weight="normal" text-decoration="undefined" x="37" y="148.5" text-anchor="start" dominant-baseline="central" transform="matrix(1 0 0 1 -22 -6)">+setId(id: Long): void</text></g></g><g><g><path fill="none" stroke="none"/><text fill="#000000" stroke="none" font-family="Arial" font-size="13px" font-style="normal" font-weight="normal" text-decoration="undefined" x="37" y="163.5" text-anchor="start" dominant-baseline="central" transform="matrix(1 0 0 1 -22 -6)">+getName(): String</text></g></g><g><g><path fill="none" stroke="none"/><text fill="#000000" stroke="none" font-family="Arial" font-size="13px" font-style="normal" font-weight="normal" text-decoration="undefined" x="37" y="178.5" text-anchor="start" dominant-baseline="central" transform="matrix(1 0 0 1 -22 -6)">+setName(name: String): void</text></g></g><g><g><path fill="none" stroke="none"/><text fill="#000000" stroke="none" font-family="Arial" font-size="13px" font-style="normal" font-weight="normal" text-decoration="undefined" x="37" y="193.5" text-anchor="start" dominant-baseline="central" transform="matrix(1 0 0 1 -22 -6)">+getDescription(): String</text></g></g><g><g><path fill="none" stroke="none"/><text fill="#000000" stroke="none" font-family="Arial" font-size="13px" font-style="normal" font-weight="normal" text-decoration="undefined" x="37" y="208.5" text-anchor="start" dominant-baseline="central" transform="matrix(1 0 0 1 -22 -6)">+setDescription(description: String): void</text></g></g><g><g><path fill="none" stroke="none"/><text fill="#000000" stroke="none" font-family="Arial" font-size="13px" font-style="normal" font-weight="normal" text-decoration="undefined" x="37" y="223.5" text-anchor="start" dominant-baseline="central" transform="matrix(1 0 0 1 -22 -6)">+getCategory(): String</text></g></g><g><g><path fill="none" stroke="none"/><text fill="#000000" stroke="none" font-family="Arial" font-size="13px" font-style="normal" font-weight="normal" text-decoration="undefined" x="37" y="238.5" text-anchor="start" dominant-baseline="central" transform="matrix(1 0 0 1 -22 -6)">+setCategory(category: String): String</text></g></g><g><g><path fill="none" stroke="none"/><text fill="#000000" stroke="none" font-family="Arial" font-size="13px" font-style="normal" font-weight="normal" text-decoration="undefined" x="37" y="253.5" text-anchor="start" dominant-baseline="central" transform="matrix(1 0 0 1 -22 -6)">+getSkillLevel(): SkillLevel</text></g></g><g><g><path fill="none" stroke="none"/><text fill="#000000" stroke="none" font-family="Arial" font-size="13px" font-style="normal" font-weight="normal" text-decoration="undefined" x="37" y="268.5" text-anchor="start" dominant-baseline="central" transform="matrix(1 0 0 1 -22 -6)">+setSkillLevel(skillLevel: SkillLevel): void</text></g></g><g><g><path fill="none" stroke="none"/><text fill="#000000" stroke="none" font-family="Arial" font-size="13px" font-style="normal" font-weight="normal" text-decoration="undefined" x="37" y="283.5" text-anchor="start" dominant-baseline="central" transform="matrix(1 0 0 1 -22 -6)">+getCreatedBy(): User</text></g></g><g><g><path fill="none" stroke="none"/><text fill="#000000" stroke="none" font-family="Arial" font-size="13px" font-style="normal" font-weight="normal" text-decoration="undefined" x="37" y="298.5" text-anchor="start" dominant-baseline="central" transform="matrix(1 0 0 1 -22 -6)">+setCreatedBy(createdBy: User): void</text></g></g><g><path fill="none" stroke="#000000" paint-order="fill stroke markers" d=" M 50 319 L 50 434" stroke-miterlimit="10" stroke-dasharray=""/></g><g><path fill="none" stroke="#000000" paint-order="fill stroke markers" d=" M 45.790482243984016 423.83732514237585 L 50 434 L 54.209517756015984 423.83732514237585" stroke-miterlimit="10" stroke-dasharray=""/></g><g><rect fill="#ffffff" stroke="none" x="75" y="371" width="66.47265625" height="13" transform="matrix(1 0 0 1 -22 -6)"/></g><g><g><path fill="none" stroke="none"/><text fill="#000000" stroke="none" font-family="Arial" font-size="13px" font-style="normal" font-weight="normal" text-decoration="undefined" x="108.236328125" y="377.5" text-anchor="middle" dominant-baseline="central" transform="matrix(1 0 0 1 -22 -6)">-createdBy</text></g></g><g><rect fill="#ffffff" stroke="none" x="56" y="340" width="7.22998046875" height="13" transform="matrix(1 0 0 1 -22 -6)"/></g><g><g><path fill="none" stroke="none"/><text fill="#000000" stroke="none" font-family="Arial" font-size="13px" font-style="normal" font-weight="normal" text-decoration="undefined" x="59.614990234375" y="346.5" text-anchor="middle" dominant-baseline="central" transform="matrix(1 0 0 1 -22 -6)">*</text></g></g><g><rect fill="#ffffff" stroke="none" x="49" y="412" width="21.68359375" height="13" transform="matrix(1 0 0 1 -22 -6)"/></g><g><g><path fill="none" stroke="none"/><text fill="#000000" stroke="none" font-family="Arial" font-size="13px" font-style="normal" font-weight="normal" text-decoration="undefined" x="59.841796875" y="418.5" text-anchor="middle" dominant-baseline="central" transform="matrix(1 0 0 1 -22 -6)">0..1</text></g></g><g><path fill="none" stroke="#000000" paint-order="fill stroke markers" d=" M 226 319 L 226 650" stroke-miterlimit="10" stroke-dasharray=""/></g><g><path fill="none" stroke="#000000" paint-order="fill stroke markers" d=" M 221.790482243984 639.8373251423759 L 226 650 L 230.209517756016 639.8373251423759" stroke-miterlimit="10" stroke-dasharray=""/></g><g><rect fill="#ffffff" stroke="none" x="265" y="499" width="60.33447265625" height="13" transform="matrix(1 0 0 1 -22 -6)"/></g><g><g><path fill="none" stroke="none"/><text fill="#000000" stroke="none" font-family="Arial" font-size="13px" font-style="normal" font-weight="normal" text-decoration="undefined" x="295.167236328125" y="505.5" text-anchor="middle" dominant-baseline="central" transform="matrix(1 0 0 1 -22 -6)">-skillLevel</text></g></g><g><rect fill="#ffffff" stroke="none" x="232" y="628" width="7.22998046875" height="13" transform="matrix(1 0 0 1 -22 -6)"/></g><g><g><path fill="none" stroke="none"/><text fill="#000000" stroke="none" font-family="Arial" font-size="13px" font-style="normal" font-weight="normal" text-decoration="undefined" x="235.614990234375" y="634.5" text-anchor="middle" dominant-baseline="central" transform="matrix(1 0 0 1 -22 -6)">1</text></g></g></g></svg>