<svg version="1.1" xmlns="http://www.w3.org/2000/svg" xmlns:xlink="http://www.w3.org/1999/xlink" width="1228.04345703125" height="709"><defs/><g><g><rect fill="#C0C0C0" stroke="none" x="543" y="503" width="120.53173828125" height="53" transform="matrix(1 0 0 1 -38 -22)" fill-opacity="0.2"/></g><g><rect fill="#ffffff" stroke="none" x="536" y="496" width="120.53173828125" height="53" transform="matrix(1 0 0 1 -38 -22)"/></g><g><path fill="none" stroke="#000000" paint-order="fill stroke markers" d=" M 498 474 L 618.53173828125 474 L 618.53173828125 527 L 498 527 L 498 474 Z Z" stroke-miterlimit="10" stroke-dasharray=""/></g><g><g><path fill="none" stroke="none"/><text fill="#000000" stroke="none" font-family="Arial" font-size="13px" font-style="normal" font-weight="normal" text-decoration="undefined" x="596.765869140625" y="507.5" text-anchor="middle" dominant-baseline="central" transform="matrix(1 0 0 1 -38 -22)">«interface»</text></g></g><g><g><path fill="none" stroke="none"/><text fill="#000000" stroke="none" font-family="Arial" font-size="13px" font-style="normal" font-weight="bold" text-decoration="undefined" x="596.765869140625" y="522.5" text-anchor="middle" dominant-baseline="central" transform="matrix(1 0 0 1 -38 -22)">RecipeRepository</text></g></g><g><g><path fill="none" stroke="none"/><text fill="#000000" stroke="none" font-family="Arial" font-size="13px" font-style="normal" font-weight="normal" text-decoration="undefined" x="596.765869140625" y="537.5" text-anchor="middle" dominant-baseline="central" transform="matrix(1 0 0 1 -38 -22)">(from repository)</text></g></g><g><rect fill="#C0C0C0" stroke="none" x="535" y="632" width="297.31884765625" height="53" transform="matrix(1 0 0 1 -38 -22)" fill-opacity="0.2"/></g><g><rect fill="#C0C0C0" stroke="none" x="819.31884765625" y="599" width="23" height="38" transform="matrix(1 0 0 1 -38 -22)" fill-opacity="0.2"/></g><g><rect fill="#ffffff" stroke="none" x="528" y="625" width="297.31884765625" height="53" transform="matrix(1 0 0 1 -38 -22)"/></g><g><path fill="none" stroke="#000000" paint-order="fill stroke markers" d=" M 490 603 L 787.31884765625 603 L 787.31884765625 656 L 490 656 L 490 603 Z Z" stroke-miterlimit="10" stroke-dasharray=""/></g><g><g><path fill="none" stroke="none"/><text fill="#000000" stroke="none" font-family="Arial" font-size="13px" font-style="normal" font-weight="normal" text-decoration="undefined" x="677.159423828125" y="636.5" text-anchor="middle" dominant-baseline="central" transform="matrix(1 0 0 1 -38 -22)">«interface»</text></g></g><g><g><path fill="none" stroke="none"/><text fill="#000000" stroke="none" font-family="Arial" font-size="13px" font-style="normal" font-weight="bold" text-decoration="undefined" x="677.159423828125" y="651.5" text-anchor="middle" dominant-baseline="central" transform="matrix(1 0 0 1 -38 -22)">JpaRepository</text></g></g><g><g><path fill="none" stroke="none"/><text fill="#000000" stroke="none" font-family="Arial" font-size="13px" font-style="normal" font-weight="normal" text-decoration="undefined" x="677.159423828125" y="666.5" text-anchor="middle" dominant-baseline="central" transform="matrix(1 0 0 1 -38 -22)">(from org.springframework.data.jpa.repository)</text></g></g><g><rect fill="#ffffff" stroke="none" x="812.31884765625" y="592" width="23" height="38" transform="matrix(1 0 0 1 -38 -22)"/></g><g><path fill="none" stroke="#000000" paint-order="fill stroke markers" d=" M 774.31884765625 570 L 797.31884765625 570 L 797.31884765625 608 L 774.31884765625 608 L 774.31884765625 570 Z Z" stroke-miterlimit="10" stroke-dasharray="3"/></g><g><g><path fill="none" stroke="none"/><text fill="#000000" stroke="none" font-family="Arial" font-size="13px" font-style="normal" font-weight="normal" text-decoration="undefined" x="817.31884765625" y="603.5" text-anchor="start" dominant-baseline="central" transform="matrix(1 0 0 1 -38 -22)">T</text></g></g><g><g><path fill="none" stroke="none"/><text fill="#000000" stroke="none" font-family="Arial" font-size="13px" font-style="normal" font-weight="normal" text-decoration="undefined" x="817.31884765625" y="618.5" text-anchor="start" dominant-baseline="central" transform="matrix(1 0 0 1 -38 -22)">ID</text></g></g><g><path fill="none" stroke="#000000" paint-order="fill stroke markers" d=" M 554 527 L 554 570" stroke-miterlimit="10" stroke-dasharray="3"/></g><g><path fill="#FFFFFF" stroke="none" paint-order="stroke fill markers" d=" M 545.580964487968 549.6746502847517 L 554 570 L 562.419035512032 549.6746502847517"/></g><g><path fill="none" stroke="#000000" paint-order="fill stroke markers" d=" M 545.580964487968 549.6746502847517 L 554 570 L 562.419035512032 549.6746502847517 L 545.580964487968 549.6746502847517" stroke-miterlimit="10" stroke-dasharray=""/></g><g><rect fill="#C0C0C0" stroke="none" x="719" y="503" width="106.80810546875" height="53" transform="matrix(1 0 0 1 -38 -22)" fill-opacity="0.2"/></g><g><rect fill="#ffffff" stroke="none" x="712" y="496" width="106.80810546875" height="53" transform="matrix(1 0 0 1 -38 -22)"/></g><g><path fill="none" stroke="#000000" paint-order="fill stroke markers" d=" M 674 474 L 780.80810546875 474 L 780.80810546875 527 L 674 527 L 674 474 Z Z" stroke-miterlimit="10" stroke-dasharray=""/></g><g><g><path fill="none" stroke="none"/><text fill="#000000" stroke="none" font-family="Arial" font-size="13px" font-style="normal" font-weight="normal" text-decoration="undefined" x="765.904052734375" y="507.5" text-anchor="middle" dominant-baseline="central" transform="matrix(1 0 0 1 -38 -22)">«interface»</text></g></g><g><g><path fill="none" stroke="none"/><text fill="#000000" stroke="none" font-family="Arial" font-size="13px" font-style="normal" font-weight="bold" text-decoration="undefined" x="765.904052734375" y="522.5" text-anchor="middle" dominant-baseline="central" transform="matrix(1 0 0 1 -38 -22)">UserRepository</text></g></g><g><g><path fill="none" stroke="none"/><text fill="#000000" stroke="none" font-family="Arial" font-size="13px" font-style="normal" font-weight="normal" text-decoration="undefined" x="765.904052734375" y="537.5" text-anchor="middle" dominant-baseline="central" transform="matrix(1 0 0 1 -38 -22)">(from repository)</text></g></g><g><path fill="none" stroke="#000000" paint-order="fill stroke markers" d=" M 738 527 L 738 570" stroke-miterlimit="10" stroke-dasharray="3"/></g><g><path fill="#FFFFFF" stroke="none" paint-order="stroke fill markers" d=" M 729.580964487968 549.6746502847517 L 738 570 L 746.419035512032 549.6746502847517"/></g><g><path fill="none" stroke="#000000" paint-order="fill stroke markers" d=" M 729.580964487968 549.6746502847517 L 738 570 L 746.419035512032 549.6746502847517 L 729.580964487968 549.6746502847517" stroke-miterlimit="10" stroke-dasharray=""/></g><g><rect fill="#C0C0C0" stroke="none" x="375" y="263" width="317.43603515625" height="174" transform="matrix(1 0 0 1 -38 -22)" fill-opacity="0.2"/></g><g><rect fill="#ffffff" stroke="none" x="368" y="256" width="317.43603515625" height="174" transform="matrix(1 0 0 1 -38 -22)"/></g><g><path fill="none" stroke="#000000" paint-order="fill stroke markers" d=" M 330 234 L 647.43603515625 234 L 647.43603515625 408 L 330 408 L 330 234 Z Z" stroke-miterlimit="10" stroke-dasharray=""/></g><g><path fill="none" stroke="#000000" paint-order="fill stroke markers" d=" M 330 287 L 647.43603515625 287" stroke-miterlimit="10" stroke-dasharray=""/></g><g><path fill="none" stroke="#000000" paint-order="fill stroke markers" d=" M 330 310 L 647.43603515625 310" stroke-miterlimit="10" stroke-dasharray=""/></g><g><g><path fill="none" stroke="none"/><text fill="#000000" stroke="none" font-family="Arial" font-size="13px" font-style="normal" font-weight="normal" text-decoration="undefined" x="527.218017578125" y="267.5" text-anchor="middle" dominant-baseline="central" transform="matrix(1 0 0 1 -38 -22)">«Service»</text></g></g><g><g><path fill="none" stroke="none"/><text fill="#000000" stroke="none" font-family="Arial" font-size="13px" font-style="normal" font-weight="bold" text-decoration="undefined" x="527.218017578125" y="282.5" text-anchor="middle" dominant-baseline="central" transform="matrix(1 0 0 1 -38 -22)">RecipeService</text></g></g><g><g><path fill="none" stroke="none"/><text fill="#000000" stroke="none" font-family="Arial" font-size="13px" font-style="normal" font-weight="normal" text-decoration="undefined" x="527.218017578125" y="297.5" text-anchor="middle" dominant-baseline="central" transform="matrix(1 0 0 1 -38 -22)">(from service)</text></g></g><g><g><path fill="none" stroke="none"/><text fill="#000000" stroke="none" font-family="Arial" font-size="13px" font-style="normal" font-weight="normal" text-decoration="undefined" x="373" y="320.5" text-anchor="start" dominant-baseline="central" transform="matrix(1 0 0 1 -38 -22)">-recipeRepository: RecipeRepository</text></g></g><g><g><path fill="none" stroke="none"/><text fill="#000000" stroke="none" font-family="Arial" font-size="13px" font-style="normal" font-weight="normal" text-decoration="undefined" x="373" y="343.5" text-anchor="start" dominant-baseline="central" transform="matrix(1 0 0 1 -38 -22)">+RecipeService(recipeRepository: RecipeRepository)</text></g></g><g><g><path fill="none" stroke="none"/><text fill="#000000" stroke="none" font-family="Arial" font-size="13px" font-style="normal" font-weight="normal" text-decoration="undefined" x="373" y="358.5" text-anchor="start" dominant-baseline="central" transform="matrix(1 0 0 1 -38 -22)">+findAll(): List&lt;Recipe&gt;</text></g></g><g><g><path fill="none" stroke="none"/><text fill="#000000" stroke="none" font-family="Arial" font-size="13px" font-style="normal" font-weight="normal" text-decoration="undefined" x="373" y="373.5" text-anchor="start" dominant-baseline="central" transform="matrix(1 0 0 1 -38 -22)">+findById(recipeId: Long): Recipe</text></g></g><g><g><path fill="none" stroke="none"/><text fill="#000000" stroke="none" font-family="Arial" font-size="13px" font-style="normal" font-weight="normal" text-decoration="undefined" x="373" y="388.5" text-anchor="start" dominant-baseline="central" transform="matrix(1 0 0 1 -38 -22)">+updateById(recipeId: Long, recipe: Recipe): Recipe</text></g></g><g><g><path fill="none" stroke="none"/><text fill="#000000" stroke="none" font-family="Arial" font-size="13px" font-style="normal" font-weight="normal" text-decoration="undefined" x="373" y="403.5" text-anchor="start" dominant-baseline="central" transform="matrix(1 0 0 1 -38 -22)">+create(recipe: Recipe): Recipe</text></g></g><g><g><path fill="none" stroke="none"/><text fill="#000000" stroke="none" font-family="Arial" font-size="13px" font-style="normal" font-weight="normal" text-decoration="undefined" x="373" y="418.5" text-anchor="start" dominant-baseline="central" transform="matrix(1 0 0 1 -38 -22)">+delete(recipeId: Long)</text></g></g><g><rect fill="#C0C0C0" stroke="none" x="719" y="263" width="312.70068359375" height="174" transform="matrix(1 0 0 1 -38 -22)" fill-opacity="0.2"/></g><g><rect fill="#ffffff" stroke="none" x="712" y="256" width="312.70068359375" height="174" transform="matrix(1 0 0 1 -38 -22)"/></g><g><path fill="none" stroke="#000000" paint-order="fill stroke markers" d=" M 674 234 L 986.70068359375 234 L 986.70068359375 408 L 674 408 L 674 234 Z Z" stroke-miterlimit="10" stroke-dasharray=""/></g><g><path fill="none" stroke="#000000" paint-order="fill stroke markers" d=" M 674 287 L 986.70068359375 287" stroke-miterlimit="10" stroke-dasharray=""/></g><g><path fill="none" stroke="#000000" paint-order="fill stroke markers" d=" M 674 310 L 986.70068359375 310" stroke-miterlimit="10" stroke-dasharray=""/></g><g><g><path fill="none" stroke="none"/><text fill="#000000" stroke="none" font-family="Arial" font-size="13px" font-style="normal" font-weight="normal" text-decoration="undefined" x="868.850341796875" y="267.5" text-anchor="middle" dominant-baseline="central" transform="matrix(1 0 0 1 -38 -22)">«Service»</text></g></g><g><g><path fill="none" stroke="none"/><text fill="#000000" stroke="none" font-family="Arial" font-size="13px" font-style="normal" font-weight="bold" text-decoration="undefined" x="868.850341796875" y="282.5" text-anchor="middle" dominant-baseline="central" transform="matrix(1 0 0 1 -38 -22)">UserService</text></g></g><g><g><path fill="none" stroke="none"/><text fill="#000000" stroke="none" font-family="Arial" font-size="13px" font-style="normal" font-weight="normal" text-decoration="undefined" x="868.850341796875" y="297.5" text-anchor="middle" dominant-baseline="central" transform="matrix(1 0 0 1 -38 -22)">(from service)</text></g></g><g><g><path fill="none" stroke="none"/><text fill="#000000" stroke="none" font-family="Arial" font-size="13px" font-style="normal" font-weight="normal" text-decoration="undefined" x="717" y="320.5" text-anchor="start" dominant-baseline="central" transform="matrix(1 0 0 1 -38 -22)">-userRepository: UserRepository</text></g></g><g><g><path fill="none" stroke="none"/><text fill="#000000" stroke="none" font-family="Arial" font-size="13px" font-style="normal" font-weight="normal" text-decoration="undefined" x="717" y="343.5" text-anchor="start" dominant-baseline="central" transform="matrix(1 0 0 1 -38 -22)">+UserService(userRepository: UserRepository)</text></g></g><g><g><path fill="none" stroke="none"/><text fill="#000000" stroke="none" font-family="Arial" font-size="13px" font-style="normal" font-weight="normal" text-decoration="undefined" x="717" y="358.5" text-anchor="start" dominant-baseline="central" transform="matrix(1 0 0 1 -38 -22)">+findAll(): List&lt;User&gt;</text></g></g><g><g><path fill="none" stroke="none"/><text fill="#000000" stroke="none" font-family="Arial" font-size="13px" font-style="normal" font-weight="normal" text-decoration="undefined" x="717" y="373.5" text-anchor="start" dominant-baseline="central" transform="matrix(1 0 0 1 -38 -22)">+findById(userId: Long): User</text></g></g><g><g><path fill="none" stroke="none"/><text fill="#000000" stroke="none" font-family="Arial" font-size="13px" font-style="normal" font-weight="normal" text-decoration="undefined" x="717" y="388.5" text-anchor="start" dominant-baseline="central" transform="matrix(1 0 0 1 -38 -22)">+updateById(userId: Long, user: User): User</text></g></g><g><g><path fill="none" stroke="none"/><text fill="#000000" stroke="none" font-family="Arial" font-size="13px" font-style="normal" font-weight="normal" text-decoration="undefined" x="717" y="403.5" text-anchor="start" dominant-baseline="central" transform="matrix(1 0 0 1 -38 -22)">+create(user: User): User</text></g></g><g><g><path fill="none" stroke="none"/><text fill="#000000" stroke="none" font-family="Arial" font-size="13px" font-style="normal" font-weight="normal" text-decoration="undefined" x="717" y="418.5" text-anchor="start" dominant-baseline="central" transform="matrix(1 0 0 1 -38 -22)">+delete(userId: Long)</text></g></g><g><rect fill="#C0C0C0" stroke="none" x="375" y="39" width="324.98974609375" height="174" transform="matrix(1 0 0 1 -38 -22)" fill-opacity="0.2"/></g><g><rect fill="#ffffff" stroke="none" x="368" y="32" width="324.98974609375" height="174" transform="matrix(1 0 0 1 -38 -22)"/></g><g><path fill="none" stroke="#000000" paint-order="fill stroke markers" d=" M 330 10 L 654.98974609375 10 L 654.98974609375 184 L 330 184 L 330 10 Z Z" stroke-miterlimit="10" stroke-dasharray=""/></g><g><path fill="none" stroke="#000000" paint-order="fill stroke markers" d=" M 330 63 L 654.98974609375 63" stroke-miterlimit="10" stroke-dasharray=""/></g><g><path fill="none" stroke="#000000" paint-order="fill stroke markers" d=" M 330 86 L 654.98974609375 86" stroke-miterlimit="10" stroke-dasharray=""/></g><g><g><path fill="none" stroke="none"/><text fill="#000000" stroke="none" font-family="Arial" font-size="13px" font-style="normal" font-weight="normal" text-decoration="undefined" x="530.994873046875" y="43.5" text-anchor="middle" dominant-baseline="central" transform="matrix(1 0 0 1 -38 -22)">«RestController»</text></g></g><g><g><path fill="none" stroke="none"/><text fill="#000000" stroke="none" font-family="Arial" font-size="13px" font-style="normal" font-weight="bold" text-decoration="undefined" x="530.994873046875" y="58.5" text-anchor="middle" dominant-baseline="central" transform="matrix(1 0 0 1 -38 -22)">RecipeController</text></g></g><g><g><path fill="none" stroke="none"/><text fill="#000000" stroke="none" font-family="Arial" font-size="13px" font-style="normal" font-weight="normal" text-decoration="undefined" x="530.994873046875" y="73.5" text-anchor="middle" dominant-baseline="central" transform="matrix(1 0 0 1 -38 -22)">(from controller)</text></g></g><g><g><path fill="none" stroke="none"/><text fill="#000000" stroke="none" font-family="Arial" font-size="13px" font-style="normal" font-weight="normal" text-decoration="undefined" x="373" y="96.5" text-anchor="start" dominant-baseline="central" transform="matrix(1 0 0 1 -38 -22)">-recipeService: RecipeService</text></g></g><g><g><path fill="none" stroke="none"/><text fill="#000000" stroke="none" font-family="Arial" font-size="13px" font-style="normal" font-weight="normal" text-decoration="undefined" x="373" y="119.5" text-anchor="start" dominant-baseline="central" transform="matrix(1 0 0 1 -38 -22)">+RecipeController(recipeService: RecipeService)</text></g></g><g><g><path fill="none" stroke="none"/><text fill="#000000" stroke="none" font-family="Arial" font-size="13px" font-style="normal" font-weight="normal" text-decoration="undefined" x="373" y="134.5" text-anchor="start" dominant-baseline="central" transform="matrix(1 0 0 1 -38 -22)">+findAll(): List&lt;Recipe&gt;</text></g></g><g><g><path fill="none" stroke="none"/><text fill="#000000" stroke="none" font-family="Arial" font-size="13px" font-style="normal" font-weight="normal" text-decoration="undefined" x="373" y="149.5" text-anchor="start" dominant-baseline="central" transform="matrix(1 0 0 1 -38 -22)">+findById(recipeId: Long): Recipe</text></g></g><g><g><path fill="none" stroke="none"/><text fill="#000000" stroke="none" font-family="Arial" font-size="13px" font-style="normal" font-weight="normal" text-decoration="undefined" x="373" y="164.5" text-anchor="start" dominant-baseline="central" transform="matrix(1 0 0 1 -38 -22)">+update(recipeId: Long, recipe: Recipe): Recipe</text></g></g><g><g><path fill="none" stroke="none"/><text fill="#000000" stroke="none" font-family="Arial" font-size="13px" font-style="normal" font-weight="normal" text-decoration="undefined" x="373" y="179.5" text-anchor="start" dominant-baseline="central" transform="matrix(1 0 0 1 -38 -22)">+create(recipe: Recipe): Recipe</text></g></g><g><g><path fill="none" stroke="none"/><text fill="#000000" stroke="none" font-family="Arial" font-size="13px" font-style="normal" font-weight="normal" text-decoration="undefined" x="373" y="194.5" text-anchor="start" dominant-baseline="central" transform="matrix(1 0 0 1 -38 -22)">+delete(recipeId: Long)</text></g></g><g><rect fill="#C0C0C0" stroke="none" x="719" y="39" width="324.98974609375" height="174" transform="matrix(1 0 0 1 -38 -22)" fill-opacity="0.2"/></g><g><rect fill="#ffffff" stroke="none" x="712" y="32" width="324.98974609375" height="174" transform="matrix(1 0 0 1 -38 -22)"/></g><g><path fill="none" stroke="#000000" paint-order="fill stroke markers" d=" M 674 10 L 998.98974609375 10 L 998.98974609375 184 L 674 184 L 674 10 Z Z" stroke-miterlimit="10" stroke-dasharray=""/></g><g><path fill="none" stroke="#000000" paint-order="fill stroke markers" d=" M 674 63 L 998.98974609375 63" stroke-miterlimit="10" stroke-dasharray=""/></g><g><path fill="none" stroke="#000000" paint-order="fill stroke markers" d=" M 674 86 L 998.98974609375 86" stroke-miterlimit="10" stroke-dasharray=""/></g><g><g><path fill="none" stroke="none"/><text fill="#000000" stroke="none" font-family="Arial" font-size="13px" font-style="normal" font-weight="normal" text-decoration="undefined" x="874.994873046875" y="43.5" text-anchor="middle" dominant-baseline="central" transform="matrix(1 0 0 1 -38 -22)">«RestController»</text></g></g><g><g><path fill="none" stroke="none"/><text fill="#000000" stroke="none" font-family="Arial" font-size="13px" font-style="normal" font-weight="bold" text-decoration="undefined" x="874.994873046875" y="58.5" text-anchor="middle" dominant-baseline="central" transform="matrix(1 0 0 1 -38 -22)">UserController</text></g></g><g><g><path fill="none" stroke="none"/><text fill="#000000" stroke="none" font-family="Arial" font-size="13px" font-style="normal" font-weight="normal" text-decoration="undefined" x="874.994873046875" y="73.5" text-anchor="middle" dominant-baseline="central" transform="matrix(1 0 0 1 -38 -22)">(from controller)</text></g></g><g><g><path fill="none" stroke="none"/><text fill="#000000" stroke="none" font-family="Arial" font-size="13px" font-style="normal" font-weight="normal" text-decoration="undefined" x="717" y="96.5" text-anchor="start" dominant-baseline="central" transform="matrix(1 0 0 1 -38 -22)">-userService: UserService</text></g></g><g><g><path fill="none" stroke="none"/><text fill="#000000" stroke="none" font-family="Arial" font-size="13px" font-style="normal" font-weight="normal" text-decoration="undefined" x="717" y="119.5" text-anchor="start" dominant-baseline="central" transform="matrix(1 0 0 1 -38 -22)">+UserController(userService: UserService)</text></g></g><g><g><path fill="none" stroke="none"/><text fill="#000000" stroke="none" font-family="Arial" font-size="13px" font-style="normal" font-weight="normal" text-decoration="undefined" x="717" y="134.5" text-anchor="start" dominant-baseline="central" transform="matrix(1 0 0 1 -38 -22)">+findAll(): List&lt;User&gt;</text></g></g><g><g><path fill="none" stroke="none"/><text fill="#000000" stroke="none" font-family="Arial" font-size="13px" font-style="normal" font-weight="normal" text-decoration="undefined" x="717" y="149.5" text-anchor="start" dominant-baseline="central" transform="matrix(1 0 0 1 -38 -22)">+findById(userId: Long): User</text></g></g><g><g><path fill="none" stroke="none"/><text fill="#000000" stroke="none" font-family="Arial" font-size="13px" font-style="normal" font-weight="normal" text-decoration="undefined" x="717" y="164.5" text-anchor="start" dominant-baseline="central" transform="matrix(1 0 0 1 -38 -22)">+update(userId: Long, user: User): User</text></g></g><g><g><path fill="none" stroke="none"/><text fill="#000000" stroke="none" font-family="Arial" font-size="13px" font-style="normal" font-weight="normal" text-decoration="undefined" x="717" y="179.5" text-anchor="start" dominant-baseline="central" transform="matrix(1 0 0 1 -38 -22)">+create(user: User): User</text></g></g><g><g><path fill="none" stroke="none"/><text fill="#000000" stroke="none" font-family="Arial" font-size="13px" font-style="normal" font-weight="normal" text-decoration="undefined" x="717" y="194.5" text-anchor="start" dominant-baseline="central" transform="matrix(1 0 0 1 -38 -22)">+delete(userId: Long)</text></g></g><g><path fill="none" stroke="#000000" paint-order="fill stroke markers" d=" M 562 408 L 562 474" stroke-miterlimit="10" stroke-dasharray="3"/></g><g><path fill="none" stroke="#000000" paint-order="fill stroke markers" d=" M 557.790482243984 463.83732514237585 L 562 474 L 566.209517756016 463.83732514237585" stroke-miterlimit="10" stroke-dasharray=""/></g><g><path fill="none" stroke="#000000" paint-order="fill stroke markers" d=" M 738 408 L 738 474" stroke-miterlimit="10" stroke-dasharray="3"/></g><g><path fill="none" stroke="#000000" paint-order="fill stroke markers" d=" M 733.790482243984 463.83732514237585 L 738 474 L 742.209517756016 463.83732514237585" stroke-miterlimit="10" stroke-dasharray=""/></g><g><path fill="none" stroke="#000000" paint-order="fill stroke markers" d=" M 481 184 L 481 234" stroke-miterlimit="10" stroke-dasharray="3"/></g><g><path fill="none" stroke="#000000" paint-order="fill stroke markers" d=" M 476.790482243984 223.83732514237585 L 481 234 L 485.209517756016 223.83732514237585" stroke-miterlimit="10" stroke-dasharray=""/></g><g><path fill="none" stroke="#000000" paint-order="fill stroke markers" d=" M 834 185 L 832 233" stroke-miterlimit="10" stroke-dasharray="3"/></g><g><path fill="none" stroke="#000000" paint-order="fill stroke markers" d=" M 828.2172092782506 222.67089092150505 L 832 233 L 836.6289461018607 223.02137995582214" stroke-miterlimit="10" stroke-dasharray=""/></g><g><rect fill="#C0C0C0" stroke="none" x="1079" y="135" width="183.04345703125" height="219" transform="matrix(1 0 0 1 -38 -22)" fill-opacity="0.2"/></g><g><rect fill="#ffffff" stroke="none" x="1072" y="128" width="183.04345703125" height="219" transform="matrix(1 0 0 1 -38 -22)"/></g><g><path fill="none" stroke="#000000" paint-order="fill stroke markers" d=" M 1034 106 L 1217.04345703125 106 L 1217.04345703125 325 L 1034 325 L 1034 106 Z Z" stroke-miterlimit="10" stroke-dasharray=""/></g><g><path fill="none" stroke="#000000" paint-order="fill stroke markers" d=" M 1034 159 L 1217.04345703125 159" stroke-miterlimit="10" stroke-dasharray=""/></g><g><path fill="none" stroke="#000000" paint-order="fill stroke markers" d=" M 1034 212 L 1217.04345703125 212" stroke-miterlimit="10" stroke-dasharray=""/></g><g><g><path fill="none" stroke="none"/><text fill="#000000" stroke="none" font-family="Arial" font-size="13px" font-style="normal" font-weight="normal" text-decoration="undefined" x="1164.021728515625" y="139.5" text-anchor="middle" dominant-baseline="central" transform="matrix(1 0 0 1 -38 -22)">«Entity»</text></g></g><g><g><path fill="none" stroke="none"/><text fill="#000000" stroke="none" font-family="Arial" font-size="13px" font-style="normal" font-weight="bold" text-decoration="undefined" x="1164.021728515625" y="154.5" text-anchor="middle" dominant-baseline="central" transform="matrix(1 0 0 1 -38 -22)">User</text></g></g><g><g><path fill="none" stroke="none"/><text fill="#000000" stroke="none" font-family="Arial" font-size="13px" font-style="normal" font-weight="normal" text-decoration="undefined" x="1164.021728515625" y="169.5" text-anchor="middle" dominant-baseline="central" transform="matrix(1 0 0 1 -38 -22)">(from model)</text></g></g><g><g><path fill="none" stroke="none"/><text fill="#000000" stroke="none" font-family="Arial" font-size="13px" font-style="normal" font-weight="normal" text-decoration="undefined" x="1077" y="192.5" text-anchor="start" dominant-baseline="central" transform="matrix(1 0 0 1 -38 -22)">-id: Long</text></g></g><g><g><path fill="none" stroke="none"/><text fill="#000000" stroke="none" font-family="Arial" font-size="13px" font-style="normal" font-weight="normal" text-decoration="undefined" x="1077" y="207.5" text-anchor="start" dominant-baseline="central" transform="matrix(1 0 0 1 -38 -22)">-name: String</text></g></g><g><g><path fill="none" stroke="none"/><text fill="#000000" stroke="none" font-family="Arial" font-size="13px" font-style="normal" font-weight="normal" text-decoration="undefined" x="1077" y="222.5" text-anchor="start" dominant-baseline="central" transform="matrix(1 0 0 1 -38 -22)">-email: String</text></g></g><g><g><path fill="none" stroke="none"/><text fill="#000000" stroke="none" font-family="Arial" font-size="13px" font-style="normal" font-weight="normal" text-decoration="undefined" x="1077" y="245.5" text-anchor="start" dominant-baseline="central" transform="matrix(1 0 0 1 -38 -22)">+getId(): Long</text></g></g><g><g><path fill="none" stroke="none"/><text fill="#000000" stroke="none" font-family="Arial" font-size="13px" font-style="normal" font-weight="normal" text-decoration="undefined" x="1077" y="260.5" text-anchor="start" dominant-baseline="central" transform="matrix(1 0 0 1 -38 -22)">+setId(id: Long): void</text></g></g><g><g><path fill="none" stroke="none"/><text fill="#000000" stroke="none" font-family="Arial" font-size="13px" font-style="normal" font-weight="normal" text-decoration="undefined" x="1077" y="275.5" text-anchor="start" dominant-baseline="central" transform="matrix(1 0 0 1 -38 -22)">+getName(): String</text></g></g><g><g><path fill="none" stroke="none"/><text fill="#000000" stroke="none" font-family="Arial" font-size="13px" font-style="normal" font-weight="normal" text-decoration="undefined" x="1077" y="290.5" text-anchor="start" dominant-baseline="central" transform="matrix(1 0 0 1 -38 -22)">+setName(name: String): void</text></g></g><g><g><path fill="none" stroke="none"/><text fill="#000000" stroke="none" font-family="Arial" font-size="13px" font-style="normal" font-weight="normal" text-decoration="undefined" x="1077" y="305.5" text-anchor="start" dominant-baseline="central" transform="matrix(1 0 0 1 -38 -22)">+getEmail(): String</text></g></g><g><g><path fill="none" stroke="none"/><text fill="#000000" stroke="none" font-family="Arial" font-size="13px" font-style="normal" font-weight="normal" text-decoration="undefined" x="1077" y="320.5" text-anchor="start" dominant-baseline="central" transform="matrix(1 0 0 1 -38 -22)">+setEmail(email: String): void</text></g></g><g><rect fill="#C0C0C0" stroke="none" x="55" y="71" width="244.45703125" height="324" transform="matrix(1 0 0 1 -38 -22)" fill-opacity="0.2"/></g><g><rect fill="#ffffff" stroke="none" x="48" y="64" width="244.45703125" height="324" transform="matrix(1 0 0 1 -38 -22)"/></g><g><path fill="none" stroke="#000000" paint-order="fill stroke markers" d=" M 10 42 L 254.45703125 42 L 254.45703125 366 L 10 366 L 10 42 Z Z" stroke-miterlimit="10" stroke-dasharray=""/></g><g><path fill="none" stroke="#000000" paint-order="fill stroke markers" d=" M 10 95 L 254.45703125 95" stroke-miterlimit="10" stroke-dasharray=""/></g><g><path fill="none" stroke="#000000" paint-order="fill stroke markers" d=" M 10 163 L 254.45703125 163" stroke-miterlimit="10" stroke-dasharray=""/></g><g><g><path fill="none" stroke="none"/><text fill="#000000" stroke="none" font-family="Arial" font-size="13px" font-style="normal" font-weight="normal" text-decoration="undefined" x="170.728515625" y="75.5" text-anchor="middle" dominant-baseline="central" transform="matrix(1 0 0 1 -38 -22)">«Entity»</text></g></g><g><g><path fill="none" stroke="none"/><text fill="#000000" stroke="none" font-family="Arial" font-size="13px" font-style="normal" font-weight="bold" text-decoration="undefined" x="170.728515625" y="90.5" text-anchor="middle" dominant-baseline="central" transform="matrix(1 0 0 1 -38 -22)">Recipe</text></g></g><g><g><path fill="none" stroke="none"/><text fill="#000000" stroke="none" font-family="Arial" font-size="13px" font-style="normal" font-weight="normal" text-decoration="undefined" x="170.728515625" y="105.5" text-anchor="middle" dominant-baseline="central" transform="matrix(1 0 0 1 -38 -22)">(from model)</text></g></g><g><g><path fill="none" stroke="none"/><text fill="#000000" stroke="none" font-family="Arial" font-size="13px" font-style="normal" font-weight="normal" text-decoration="undefined" x="53" y="128.5" text-anchor="start" dominant-baseline="central" transform="matrix(1 0 0 1 -38 -22)">-id: Long</text></g></g><g><g><path fill="none" stroke="none"/><text fill="#000000" stroke="none" font-family="Arial" font-size="13px" font-style="normal" font-weight="normal" text-decoration="undefined" x="53" y="143.5" text-anchor="start" dominant-baseline="central" transform="matrix(1 0 0 1 -38 -22)">-name: String</text></g></g><g><g><path fill="none" stroke="none"/><text fill="#000000" stroke="none" font-family="Arial" font-size="13px" font-style="normal" font-weight="normal" text-decoration="undefined" x="53" y="158.5" text-anchor="start" dominant-baseline="central" transform="matrix(1 0 0 1 -38 -22)">-description: String</text></g></g><g><g><path fill="none" stroke="none"/><text fill="#000000" stroke="none" font-family="Arial" font-size="13px" font-style="normal" font-weight="normal" text-decoration="undefined" x="53" y="173.5" text-anchor="start" dominant-baseline="central" transform="matrix(1 0 0 1 -38 -22)">-category: String</text></g></g><g><g><path fill="none" stroke="none"/><text fill="#000000" stroke="none" font-family="Arial" font-size="13px" font-style="normal" font-weight="normal" text-decoration="undefined" x="53" y="196.5" text-anchor="start" dominant-baseline="central" transform="matrix(1 0 0 1 -38 -22)">+getId(): Long</text></g></g><g><g><path fill="none" stroke="none"/><text fill="#000000" stroke="none" font-family="Arial" font-size="13px" font-style="normal" font-weight="normal" text-decoration="undefined" x="53" y="211.5" text-anchor="start" dominant-baseline="central" transform="matrix(1 0 0 1 -38 -22)">+setId(id: Long): void</text></g></g><g><g><path fill="none" stroke="none"/><text fill="#000000" stroke="none" font-family="Arial" font-size="13px" font-style="normal" font-weight="normal" text-decoration="undefined" x="53" y="226.5" text-anchor="start" dominant-baseline="central" transform="matrix(1 0 0 1 -38 -22)">+getName(): String</text></g></g><g><g><path fill="none" stroke="none"/><text fill="#000000" stroke="none" font-family="Arial" font-size="13px" font-style="normal" font-weight="normal" text-decoration="undefined" x="53" y="241.5" text-anchor="start" dominant-baseline="central" transform="matrix(1 0 0 1 -38 -22)">+setName(name: String): void</text></g></g><g><g><path fill="none" stroke="none"/><text fill="#000000" stroke="none" font-family="Arial" font-size="13px" font-style="normal" font-weight="normal" text-decoration="undefined" x="53" y="256.5" text-anchor="start" dominant-baseline="central" transform="matrix(1 0 0 1 -38 -22)">+getDescription(): String</text></g></g><g><g><path fill="none" stroke="none"/><text fill="#000000" stroke="none" font-family="Arial" font-size="13px" font-style="normal" font-weight="normal" text-decoration="undefined" x="53" y="271.5" text-anchor="start" dominant-baseline="central" transform="matrix(1 0 0 1 -38 -22)">+setDescription(description: String): void</text></g></g><g><g><path fill="none" stroke="none"/><text fill="#000000" stroke="none" font-family="Arial" font-size="13px" font-style="normal" font-weight="normal" text-decoration="undefined" x="53" y="286.5" text-anchor="start" dominant-baseline="central" transform="matrix(1 0 0 1 -38 -22)">+getCategory(): String</text></g></g><g><g><path fill="none" stroke="none"/><text fill="#000000" stroke="none" font-family="Arial" font-size="13px" font-style="normal" font-weight="normal" text-decoration="undefined" x="53" y="301.5" text-anchor="start" dominant-baseline="central" transform="matrix(1 0 0 1 -38 -22)">+setCategory(category: String): String</text></g></g><g><g><path fill="none" stroke="none"/><text fill="#000000" stroke="none" font-family="Arial" font-size="13px" font-style="normal" font-weight="normal" text-decoration="undefined" x="53" y="316.5" text-anchor="start" dominant-baseline="central" transform="matrix(1 0 0 1 -38 -22)">+getSkillLevel(): SkillLevel</text></g></g><g><g><path fill="none" stroke="none"/><text fill="#000000" stroke="none" font-family="Arial" font-size="13px" font-style="normal" font-weight="normal" text-decoration="undefined" x="53" y="331.5" text-anchor="start" dominant-baseline="central" transform="matrix(1 0 0 1 -38 -22)">+setSkillLevel(skillLevel: SkillLevel): void</text></g></g><g><g><path fill="none" stroke="none"/><text fill="#000000" stroke="none" font-family="Arial" font-size="13px" font-style="normal" font-weight="normal" text-decoration="undefined" x="53" y="346.5" text-anchor="start" dominant-baseline="central" transform="matrix(1 0 0 1 -38 -22)">+getCreatedBy(): User</text></g></g><g><g><path fill="none" stroke="none"/><text fill="#000000" stroke="none" font-family="Arial" font-size="13px" font-style="normal" font-weight="normal" text-decoration="undefined" x="53" y="361.5" text-anchor="start" dominant-baseline="central" transform="matrix(1 0 0 1 -38 -22)">+setCreatedBy(createdBy: User): void</text></g></g><g><path fill="none" stroke="#000000" paint-order="fill stroke markers" d=" M 146 366 L 146 698 L 1090 698 L 1090 325" stroke-miterlimit="10" stroke-dasharray=""/></g><g><path fill="none" stroke="#000000" paint-order="fill stroke markers" d=" M 1094.2095177560159 335.16267485762415 L 1090 325 L 1085.7904822439841 335.16267485762415" stroke-miterlimit="10" stroke-dasharray=""/></g><g><rect fill="#FFFFFF00" stroke="none" x="625" y="699" width="62.86083984375" height="13" transform="matrix(1 0 0 1 -38 -22)"/></g><g><g><path fill="none" stroke="none"/><text fill="#FFFFFF00" stroke="none" font-family="Arial" font-size="13px" font-style="normal" font-weight="normal" text-decoration="undefined" x="656.430419921875" y="705.5" text-anchor="middle" dominant-baseline="central" transform="matrix(1 0 0 1 -38 -22)">createdBy</text></g></g><g><rect fill="#ffffff" stroke="none" x="168" y="403" width="6.5" height="13" transform="matrix(1 0 0 1 -38 -22)"/></g><g><g><path fill="none" stroke="none"/><text fill="#FFFFFF00" stroke="none" font-family="Arial" font-size="13px" font-style="normal" font-weight="normal" text-decoration="undefined" x="171.25" y="409.5" text-anchor="middle" dominant-baseline="central" transform="matrix(1 0 0 1 -38 -22)">*</text></g></g><g><rect fill="#ffffff" stroke="none" x="1130" y="362" width="21.68359375" height="13" transform="matrix(1 0 0 1 -38 -22)"/></g><g><g><path fill="none" stroke="none"/><text fill="#FFFFFF00" stroke="none" font-family="Arial" font-size="13px" font-style="normal" font-weight="normal" text-decoration="undefined" x="1140.841796875" y="368.5" text-anchor="middle" dominant-baseline="central" transform="matrix(1 0 0 1 -38 -22)">0..1</text></g></g><g><path fill="none" stroke="#000000" paint-order="fill stroke markers" d=" M 330 366 L 254 366" stroke-miterlimit="10" stroke-dasharray="3"/></g><g><path fill="none" stroke="#000000" paint-order="fill stroke markers" d=" M 264.16267485762415 361.790482243984 L 254 366 L 264.16267485762415 370.209517756016" stroke-miterlimit="10" stroke-dasharray=""/></g><g><path fill="none" stroke="#000000" paint-order="fill stroke markers" d=" M 330 146 L 254 146" stroke-miterlimit="10" stroke-dasharray="3"/></g><g><path fill="none" stroke="#000000" paint-order="fill stroke markers" d=" M 264.16267485762415 141.790482243984 L 254 146 L 264.16267485762415 150.209517756016" stroke-miterlimit="10" stroke-dasharray=""/></g><g><path fill="none" stroke="#000000" paint-order="fill stroke markers" d=" M 987 274 L 1034 274" stroke-miterlimit="10" stroke-dasharray="3"/></g><g><path fill="none" stroke="#000000" paint-order="fill stroke markers" d=" M 1023.8373251423759 278.209517756016 L 1034 274 L 1023.8373251423759 269.790482243984" stroke-miterlimit="10" stroke-dasharray=""/></g><g><path fill="none" stroke="#000000" paint-order="fill stroke markers" d=" M 999 146 L 1034 146" stroke-miterlimit="10" stroke-dasharray="3"/></g><g><path fill="none" stroke="#000000" paint-order="fill stroke markers" d=" M 1023.8373251423759 150.209517756016 L 1034 146 L 1023.8373251423759 141.790482243984" stroke-miterlimit="10" stroke-dasharray=""/></g></g></svg>