<svg version="1.1" xmlns="http://www.w3.org/2000/svg" xmlns:xlink="http://www.w3.org/1999/xlink" width="410.42431640625" height="347"><defs/><g><g><rect fill="#C0C0C0" stroke="none" x="515" y="535" width="115.25410156249995" height="15" transform="matrix(1 0 0 1 -422 -246)" fill-opacity="0.2"/></g><g><rect fill="#C0C0C0" stroke="none" x="515" y="549" width="288.13525390625" height="41" transform="matrix(1 0 0 1 -422 -246)" fill-opacity="0.2"/></g><g><rect fill="#ffffff" stroke="none" x="508" y="543" width="288.13525390625" height="40" transform="matrix(1 0 0 1 -422 -246)"/></g><g><path fill="none" stroke="#000000" paint-order="fill stroke markers" d=" M 86 297 L 374.13525390625 297 L 374.13525390625 337 L 86 337 L 86 297 Z Z" stroke-miterlimit="10" stroke-dasharray=""/></g><g><rect fill="#ffffff" stroke="none" x="508" y="528" width="115.25410156249995" height="15" transform="matrix(1 0 0 1 -422 -246)"/></g><g><path fill="none" stroke="#000000" paint-order="fill stroke markers" d=" M 86 282 L 201.25410156249995 282 L 201.25410156249995 297 L 86 297 L 86 282 Z Z" stroke-miterlimit="10" stroke-dasharray=""/></g><g><rect fill="#ffffff" stroke="none" x="508" y="542" width="288.13525390625" height="41" transform="matrix(1 0 0 1 -422 -246)"/></g><g><path fill="none" stroke="#000000" paint-order="fill stroke markers" d=" M 86 296 L 374.13525390625 296 L 374.13525390625 337 L 86 337 L 86 296 Z Z" stroke-miterlimit="10" stroke-dasharray=""/></g><g><g><path fill="none" stroke="none"/><text fill="#000000" stroke="none" font-family="Arial" font-size="13px" font-style="normal" font-weight="bold" text-decoration="undefined" x="652.567626953125" y="556.5" text-anchor="middle" dominant-baseline="central" transform="matrix(1 0 0 1 -422 -246)">model</text></g></g><g><g><path fill="none" stroke="none"/><text fill="#000000" stroke="none" font-family="Arial" font-size="13px" font-style="normal" font-weight="normal" text-decoration="undefined" x="652.567626953125" y="571.5" text-anchor="middle" dominant-baseline="central" transform="matrix(1 0 0 1 -422 -246)">(from com.tkforgeworks.RecipeProjectSGen)</text></g></g><g><rect fill="#C0C0C0" stroke="none" x="515" y="447" width="125.36972656249998" height="15" transform="matrix(1 0 0 1 -422 -246)" fill-opacity="0.2"/></g><g><rect fill="#C0C0C0" stroke="none" x="515" y="461" width="313.42431640625" height="41" transform="matrix(1 0 0 1 -422 -246)" fill-opacity="0.2"/></g><g><rect fill="#ffffff" stroke="none" x="508" y="455" width="313.42431640625" height="40" transform="matrix(1 0 0 1 -422 -246)"/></g><g><path fill="none" stroke="#000000" paint-order="fill stroke markers" d=" M 86 209 L 399.42431640625 209 L 399.42431640625 249 L 86 249 L 86 209 Z Z" stroke-miterlimit="10" stroke-dasharray=""/></g><g><rect fill="#ffffff" stroke="none" x="508" y="440" width="125.36972656249998" height="15" transform="matrix(1 0 0 1 -422 -246)"/></g><g><path fill="none" stroke="#000000" paint-order="fill stroke markers" d=" M 86 194 L 211.36972656249998 194 L 211.36972656249998 209 L 86 209 L 86 194 Z Z" stroke-miterlimit="10" stroke-dasharray=""/></g><g><rect fill="#ffffff" stroke="none" x="508" y="454" width="313.42431640625" height="41" transform="matrix(1 0 0 1 -422 -246)"/></g><g><path fill="none" stroke="#000000" paint-order="fill stroke markers" d=" M 86 208 L 399.42431640625 208 L 399.42431640625 249 L 86 249 L 86 208 Z Z" stroke-miterlimit="10" stroke-dasharray=""/></g><g><g><path fill="none" stroke="none"/><text fill="#000000" stroke="none" font-family="Arial" font-size="13px" font-style="normal" font-weight="bold" text-decoration="undefined" x="665.212158203125" y="468.5" text-anchor="middle" dominant-baseline="central" transform="matrix(1 0 0 1 -422 -246)">repository</text></g></g><g><g><path fill="none" stroke="none"/><text fill="#000000" stroke="none" font-family="Arial" font-size="13px" font-style="normal" font-weight="normal" text-decoration="undefined" x="665.212158203125" y="483.5" text-anchor="middle" dominant-baseline="central" transform="matrix(1 0 0 1 -422 -246)">(from com.tkforgeworks.RecipeProjectSGen)</text></g></g><g><rect fill="#C0C0C0" stroke="none" x="515" y="359" width="117.86933593749995" height="15" transform="matrix(1 0 0 1 -422 -246)" fill-opacity="0.2"/></g><g><rect fill="#C0C0C0" stroke="none" x="515" y="373" width="294.67333984375" height="41" transform="matrix(1 0 0 1 -422 -246)" fill-opacity="0.2"/></g><g><rect fill="#ffffff" stroke="none" x="508" y="367" width="294.67333984375" height="40" transform="matrix(1 0 0 1 -422 -246)"/></g><g><path fill="none" stroke="#000000" paint-order="fill stroke markers" d=" M 86 121 L 380.67333984375 121 L 380.67333984375 161 L 86 161 L 86 121 Z Z" stroke-miterlimit="10" stroke-dasharray=""/></g><g><rect fill="#ffffff" stroke="none" x="508" y="352" width="117.86933593749995" height="15" transform="matrix(1 0 0 1 -422 -246)"/></g><g><path fill="none" stroke="#000000" paint-order="fill stroke markers" d=" M 86 106 L 203.86933593749995 106 L 203.86933593749995 121 L 86 121 L 86 106 Z Z" stroke-miterlimit="10" stroke-dasharray=""/></g><g><rect fill="#ffffff" stroke="none" x="508" y="366" width="294.67333984375" height="41" transform="matrix(1 0 0 1 -422 -246)"/></g><g><path fill="none" stroke="#000000" paint-order="fill stroke markers" d=" M 86 120 L 380.67333984375 120 L 380.67333984375 161 L 86 161 L 86 120 Z Z" stroke-miterlimit="10" stroke-dasharray=""/></g><g><g><path fill="none" stroke="none"/><text fill="#000000" stroke="none" font-family="Arial" font-size="13px" font-style="normal" font-weight="bold" text-decoration="undefined" x="655.836669921875" y="380.5" text-anchor="middle" dominant-baseline="central" transform="matrix(1 0 0 1 -422 -246)">service</text></g></g><g><g><path fill="none" stroke="none"/><text fill="#000000" stroke="none" font-family="Arial" font-size="13px" font-style="normal" font-weight="normal" text-decoration="undefined" x="655.836669921875" y="395.5" text-anchor="middle" dominant-baseline="central" transform="matrix(1 0 0 1 -422 -246)">(from com.tkforgeworks.RecipeProjectSGen)</text></g></g><g><rect fill="#C0C0C0" stroke="none" x="515" y="263" width="123.92246093749998" height="15" transform="matrix(1 0 0 1 -422 -246)" fill-opacity="0.2"/></g><g><rect fill="#C0C0C0" stroke="none" x="515" y="277" width="309.80615234375" height="41" transform="matrix(1 0 0 1 -422 -246)" fill-opacity="0.2"/></g><g><rect fill="#ffffff" stroke="none" x="508" y="271" width="309.80615234375" height="40" transform="matrix(1 0 0 1 -422 -246)"/></g><g><path fill="none" stroke="#000000" paint-order="fill stroke markers" d=" M 86 25 L 395.80615234375 25 L 395.80615234375 65 L 86 65 L 86 25 Z Z" stroke-miterlimit="10" stroke-dasharray=""/></g><g><rect fill="#ffffff" stroke="none" x="508" y="256" width="123.92246093749998" height="15" transform="matrix(1 0 0 1 -422 -246)"/></g><g><path fill="none" stroke="#000000" paint-order="fill stroke markers" d=" M 86 10 L 209.92246093749998 10 L 209.92246093749998 25 L 86 25 L 86 10 Z Z" stroke-miterlimit="10" stroke-dasharray=""/></g><g><rect fill="#ffffff" stroke="none" x="508" y="270" width="309.80615234375" height="41" transform="matrix(1 0 0 1 -422 -246)"/></g><g><path fill="none" stroke="#000000" paint-order="fill stroke markers" d=" M 86 24 L 395.80615234375 24 L 395.80615234375 65 L 86 65 L 86 24 Z Z" stroke-miterlimit="10" stroke-dasharray=""/></g><g><g><path fill="none" stroke="none"/><text fill="#000000" stroke="none" font-family="Arial" font-size="13px" font-style="normal" font-weight="bold" text-decoration="undefined" x="663.403076171875" y="284.5" text-anchor="middle" dominant-baseline="central" transform="matrix(1 0 0 1 -422 -246)">controller</text></g></g><g><g><path fill="none" stroke="none"/><text fill="#000000" stroke="none" font-family="Arial" font-size="13px" font-style="normal" font-weight="normal" text-decoration="undefined" x="663.403076171875" y="299.5" text-anchor="middle" dominant-baseline="central" transform="matrix(1 0 0 1 -422 -246)">(from com.tkforgeworks.RecipeProjectSGen)</text></g></g><g><path fill="none" stroke="#000000" paint-order="fill stroke markers" d=" M 162 65 L 162 106" stroke-miterlimit="10" stroke-dasharray="3"/></g><g><path fill="none" stroke="#000000" paint-order="fill stroke markers" d=" M 157.790482243984 95.83732514237585 L 162 106 L 166.209517756016 95.83732514237585" stroke-miterlimit="10" stroke-dasharray=""/></g><g><path fill="none" stroke="#000000" paint-order="fill stroke markers" d=" M 86 37 L 10 37 L 10 301 L 86 301" stroke-miterlimit="10" stroke-dasharray="3"/></g><g><path fill="none" stroke="#000000" paint-order="fill stroke markers" d=" M 75.83732514237585 305.209517756016 L 86 301 L 75.83732514237585 296.790482243984" stroke-miterlimit="10" stroke-dasharray=""/></g><g><path fill="none" stroke="#000000" paint-order="fill stroke markers" d=" M 86 138 L 10 138 L 10 301 L 86 301" stroke-miterlimit="10" stroke-dasharray="3"/></g><g><path fill="none" stroke="#000000" paint-order="fill stroke markers" d=" M 75.83732514237585 305.209517756016 L 86 301 L 75.83732514237585 296.790482243984" stroke-miterlimit="10" stroke-dasharray=""/></g><g><path fill="none" stroke="#000000" paint-order="fill stroke markers" d=" M 162 161 L 162 194" stroke-miterlimit="10" stroke-dasharray="3"/></g><g><path fill="none" stroke="#000000" paint-order="fill stroke markers" d=" M 157.790482243984 183.83732514237585 L 162 194 L 166.209517756016 183.83732514237585" stroke-miterlimit="10" stroke-dasharray=""/></g><g><path fill="none" stroke="#000000" paint-order="fill stroke markers" d=" M 162 249 L 162 282" stroke-miterlimit="10" stroke-dasharray="3"/></g><g><path fill="none" stroke="#000000" paint-order="fill stroke markers" d=" M 157.790482243984 271.8373251423759 L 162 282 L 166.209517756016 271.8373251423759" stroke-miterlimit="10" stroke-dasharray=""/></g></g></svg>